<?xml version="1.0" encoding="utf-8"?>
<!-- Generator: Adobe Illustrator 26.0.0, SVG Export Plug-In . SVG Version: 6.00 Build 0)  -->
<svg version="1.1" id="Layer_1" xmlns="http://www.w3.org/2000/svg" xmlns:xlink="http://www.w3.org/1999/xlink" x="0px" y="0px"
	 viewBox="0 0 792 612" style="enable-background:new 0 0 792 612;" xml:space="preserve">
<style type="text/css">
	.st0{fill:#064F8C;}
	.st1{fill:#F7941D;}
	.st2{fill:#073E66;}
	.st3{fill:#F6B015;}
	.st4{fill:#F1F2F2;}
	.st5{fill:#4F4F4F;}
</style>
<polygon class="st0" points="239.7,153 198.8,383.7 265.6,383.7 306.6,153 "/>
<path class="st1" d="M191.3,357.6l-66.3,21c-1.3,0.4-2.1,1.8-1.7,3.1h0c0.3,1.2,1.3,2,2.5,2h62.6c1.3,0,2.3-0.9,2.5-2.1l3.7-21
	C195,358.6,193.2,357,191.3,357.6z"/>
<polygon class="st2" points="334.3,383.7 343.7,383.7 373.4,214.8 364,214.8 "/>
<polygon class="st2" points="463.4,383.7 472.8,383.7 502.6,214.8 493.2,214.8 "/>
<polygon class="st2" points="570.7,315.2 565.8,342.9 588.8,437.3 599.8,437.3 "/>
<polygon class="st2" points="629.4,152.9 617.7,152.9 592.9,189.9 588.9,212.5 589.5,212.5 "/>
<polygon class="st0" points="526.6,153 320.5,153 310.8,206.7 384.2,206.7 353,383.6 413.6,383.6 444.8,206.7 500.9,206.7 "/>
<path class="st3" d="M187,246.1l85.6,59c18.8,13.4,26.3,37.7,18.4,59.4l-2.8,7.6l-90.7-63.2C152,270.6,187,246.1,187,246.1z"/>
<polygon class="st0" points="706.5,152.8 639.1,152.8 584.4,234.5 576.5,234.5 590.9,153 539,153 513.4,206.4 482.1,383.7 
	550.2,383.7 566.3,292 573.9,292 609.3,437.3 676.7,437.3 634.1,261 "/>
<path class="st1" d="M53.1,173.2l12.3-0.7l-7.4,7.1c-0.8,0.8-0.7,1,0.3,0.5c6.3-3.3,26.2-13.2,26.2-13.2c-8.5,0.1-20.8,1.2-31.6,5.7
	C51.8,172.9,51.9,173.2,53.1,173.2z"/>
<path class="st3" d="M290.3,207.7l-64-44.4c0,0-24.5-18.6-48.3-27c0,0-19.2-8.2-19.2-8.2c0,0,0,0,0,0c-9.7-5.8-28.1,0.7-41.1,6.2
	c0,0-34.4,14.3-34.4,14.3c-5.3,3.1-8.4,8.9-8.2,15c0,0,0,0.1,0,0.1c0.3,6.7,5.5,12.1,12.1,13.1l59.6,3.7c7.7,0.2,14.3-0.3,20.4-3.9
	l0,0c0,0,10.3,1.2,31.6,17.2l0,0l107,80.7c0,0,0.1,0,0.1,0l2.7-7.5C316.1,242.3,309,221.1,290.3,207.7z"/>
<path class="st1" d="M301.4,260.4L200.1,183l0,0c-21.2-16-31.6-17.2-31.6-17.2c-6.1,3.6-12.6,4.1-20.4,3.9L88.5,166
	c-5.7-0.8-10.3-5-11.6-10.3c-1.2,2.5-1.8,5.2-1.7,8c0,0,0,0.1,0,0.1c0.3,6.5,5.2,11.8,11.5,13c0.4,0.1,0.8,0.1,1.2,0.1l59,3.6
	c7.5,0.2,14.3-0.3,20.4-3.9c0,0,10.3,1.2,31.6,17.2l0,0l97,73.3l-3.3,18.5c5.7-1.7,11.4-6.1,13.4-10.8c0,0,0,0,0-0.1
	C307.6,269.5,305.8,263.7,301.4,260.4z"/>
<path class="st4" d="M115.1,149.9c0,0,5.7-5.4,10-6c4.3-0.6,7.9,0.7,8.3,3c0.3,2.3-3.4,2.7-7.7,3.3
	C121.5,150.8,115.1,149.9,115.1,149.9z"/>
<path class="st1" d="M283.8,358L204,302.4c-11-9.2-17.3-17.7-20.5-25.1c-1.9-6.2-1.7-15.3,8-26.1c0.8-0.8,1.7-0.8,3.6,0.5l0,0
	l15.9,11l3.6-20.2l-14.3-0.1c-8.4,0-13.3,3.8-13.3,3.8s-35,24.5,10.5,62.8l79.2,55.2c0.8,0.6,1.2,1.5,1,2.5l-2.9,16.2
	c5.7-1.7,11.5-5.7,13.3-10.7C290.1,366.9,288.3,361.1,283.8,358z"/>
<g>
	<path class="st5" d="M255.8,416.7h15.1l7.2,30.7h0.2l14.9-30.7h14L283,461.9h-14.8L255.8,416.7z"/>
	<path class="st5" d="M312.5,416.7h14l-6.3,45.2h-14L312.5,416.7z M322.6,394.4c4.5,0,7.6,3.6,7,8.1s-4.7,8.1-9.2,8.1
		c-4.5,0-7.6-3.6-7-8.1C314,398,318.1,394.4,322.6,394.4z"/>
	<path class="st5" d="M374,454.1c-5.3,5.7-13.1,8.9-20.4,8.9c-14,0-23.8-9.3-21.8-23.7c2-14.4,14.5-23.7,28.5-23.7
		c13,0,19.9,9.3,17.9,23.7l-0.6,4.4h-32.4c0.4,5.3,3.8,8.7,9.2,8.7c4.6,0,8-2.3,10.8-5.5L374,454.1z M365,434.2
		c0.7-4.7-2.3-8.6-7.3-8.6c-6.1,0-10.1,4.2-11.1,8.6H365z"/>
	<path class="st5" d="M384.4,416.7h14.9l5.2,28.4h0.2l11.7-28.4h15.3l4.4,28.4h0.2l12.5-28.4h14.1l-22.4,45.2h-13.8l-5.2-30h-0.2
		l-12.6,30h-14L384.4,416.7z"/>
	<path class="st5" d="M504.9,454.1c-5.3,5.7-13.1,8.9-20.4,8.9c-14,0-23.8-9.3-21.8-23.7c2-14.4,14.5-23.7,28.5-23.7
		c13,0,19.9,9.3,17.9,23.7l-0.6,4.4h-32.4c0.4,5.3,3.8,8.7,9.2,8.7c4.6,0,8-2.3,10.8-5.5L504.9,454.1z M495.9,434.2
		c0.7-4.7-2.3-8.6-7.3-8.6c-6.1,0-10.1,4.2-11.1,8.6H495.9z"/>
	<path class="st5" d="M520.7,416.7h14l-1,7.3h0.2c3.8-5.5,8.1-8.4,14.2-8.4c1.6,0,3.3,0.1,4.6,0.5l-1.8,12.7
		c-1.9-0.6-3.8-0.9-5.9-0.9c-10.6,0-12.7,6.1-14,15.2l-2.7,18.9h-14L520.7,416.7z"/>
</g>
</svg>
